<svg width="94" height="94" viewBox="0 0 94 94" fill="none" xmlns="http://www.w3.org/2000/svg">
<g filter="url(#filter0_d_403_222)">
<circle cx="47" cy="47" r="35" fill="white"/>
</g>
<path fill-rule="evenodd" clip-rule="evenodd" d="M44.0298 42.8548C44.3032 43.3091 44.4502 43.7976 44.4502 44.2998C44.4502 44.6756 44.3682 45.0377 44.2144 45.3895C43.541 45.0684 42.8301 44.8156 42.0884 44.638C42.9634 44.129 43.6299 43.5209 44.0298 42.8548ZM39.4976 46.1411C44.5801 46.1411 48.6987 50.2575 48.6987 55.3372C48.6987 60.4169 44.5801 64.5333 39.4976 64.5333C34.415 64.5333 30.2964 60.4169 30.2964 55.3372C30.2964 50.2575 34.4185 46.1411 39.4976 46.1411ZM41.2373 51.1217H42.3618C42.4985 51.1217 42.6079 51.2276 42.6079 51.354C42.6079 51.4019 42.5942 51.4463 42.5669 51.4838L38.0107 59.4263C37.9663 59.5048 37.8809 59.5492 37.7954 59.5492H36.6709C36.5342 59.5492 36.4248 59.4433 36.4248 59.317C36.4248 59.2691 36.4385 59.2247 36.4658 59.1871L41.0254 51.2447C41.0664 51.1661 41.1484 51.1217 41.2373 51.1217ZM34.2749 53.308C34.2749 53.1202 34.2988 52.9323 34.3398 52.7512C34.3843 52.5736 34.4492 52.3959 34.5381 52.2251C34.6304 52.0475 34.7466 51.8869 34.8867 51.7503C35.0269 51.6137 35.1875 51.4975 35.3755 51.4053C35.5601 51.3096 35.7583 51.2413 35.9736 51.1935C36.1855 51.1456 36.4146 51.1252 36.6538 51.1252C37.0093 51.1252 37.334 51.173 37.6211 51.272C37.915 51.3711 38.1714 51.5248 38.3867 51.7264C38.6021 51.9279 38.7627 52.1636 38.8721 52.4301L38.8755 52.4438C38.978 52.7034 39.0293 52.9938 39.0293 53.3115C39.0293 53.636 38.978 53.9332 38.8721 54.1962C38.7661 54.4661 38.6021 54.7018 38.3867 54.9034C38.1714 55.1049 37.915 55.2552 37.6211 55.3543C37.334 55.4533 37.0093 55.5012 36.6538 55.5012C36.4146 55.5012 36.1855 55.4773 35.9736 55.4328C35.7549 55.385 35.5566 55.3167 35.3755 55.2211L35.3584 55.2108C35.1807 55.1186 35.0234 55.0058 34.8867 54.8726C34.7466 54.736 34.6304 54.5754 34.5381 54.3978L34.5312 54.3841C34.4458 54.2167 34.3843 54.0459 34.3398 53.8683L34.3364 53.8614C34.2954 53.6804 34.2749 53.4959 34.2749 53.308ZM36.2778 53.3183C36.2778 53.513 36.2949 53.677 36.3257 53.8102C36.353 53.9298 36.394 54.022 36.4453 54.0903L36.4487 54.0972C36.4692 54.1245 36.4966 54.145 36.5239 54.1586C36.5581 54.1723 36.6025 54.1826 36.6538 54.1826C36.7461 54.1826 36.8145 54.1552 36.8555 54.0972L36.8589 54.0903C36.9102 54.022 36.9512 53.9298 36.9785 53.8102C37.0093 53.677 37.0264 53.513 37.0264 53.3183C37.0264 53.127 37.0093 52.963 36.9785 52.8332C36.9512 52.7136 36.9102 52.618 36.8555 52.5462C36.835 52.5189 36.811 52.4984 36.7837 52.4882C36.7495 52.4745 36.7051 52.4643 36.6538 52.4643C36.5991 52.4643 36.5547 52.4711 36.5205 52.4882C36.4897 52.5018 36.4624 52.5223 36.4419 52.5497C36.3906 52.618 36.3496 52.7136 36.3223 52.8298L36.3188 52.8366C36.2915 52.9664 36.2778 53.1304 36.2778 53.3183ZM39.9692 57.3424C39.9692 56.9598 40.0581 56.5943 40.2324 56.2527C40.3213 56.0751 40.4375 55.9179 40.5776 55.7813C40.7178 55.6446 40.8784 55.5285 41.0664 55.4294L41.0801 55.4226C41.2612 55.3304 41.4561 55.262 41.668 55.2176C41.8799 55.1698 42.1055 55.1493 42.3481 55.1493C43.0796 55.1493 43.6572 55.3509 44.0845 55.754C44.2998 55.9555 44.4604 56.1912 44.5698 56.4611C44.6758 56.7241 44.7271 57.0213 44.7271 57.3459C44.7271 57.6704 44.6758 57.9642 44.5698 58.2306C44.4639 58.5005 44.2998 58.7362 44.0845 58.9378C43.6572 59.3409 43.0762 59.5424 42.3481 59.5424C42.1089 59.5424 41.8833 59.5185 41.668 59.4741C41.4526 59.4263 41.2544 59.3579 41.0698 59.2623H41.0664C40.8784 59.1666 40.7178 59.0505 40.5776 58.9139C40.4375 58.7772 40.3213 58.6167 40.2324 58.4424C40.147 58.2716 40.0786 58.094 40.0376 57.9129C39.9897 57.7182 39.9692 57.5338 39.9692 57.3424ZM41.9688 57.3561C41.9688 57.5508 41.9858 57.7148 42.0166 57.848C42.0439 57.9676 42.085 58.0632 42.1362 58.1316V58.135C42.1567 58.1623 42.1807 58.1828 42.208 58.1931C42.2422 58.2067 42.2866 58.217 42.3413 58.217C42.437 58.217 42.5088 58.1862 42.5532 58.1316L42.5601 58.1247C42.6079 58.0564 42.6455 57.9642 42.6729 57.848C42.7036 57.7148 42.7207 57.5508 42.7207 57.3561C42.7207 56.9906 42.666 56.7276 42.5532 56.5772C42.5327 56.5499 42.5054 56.526 42.4746 56.5158C42.4404 56.4987 42.396 56.4918 42.3413 56.4918C42.249 56.4918 42.1807 56.5192 42.1396 56.5772L42.1294 56.5909C42.0815 56.6592 42.0439 56.7515 42.0166 56.8642C41.9858 56.9974 41.9688 57.1614 41.9688 57.3561ZM30.8296 48.5494C27.9551 47.7295 26 46.1342 26 44.2998C26 43.7976 26.147 43.3125 26.4204 42.8548C27.4185 44.5252 30.105 45.8097 33.4307 46.1513C32.4395 46.8072 31.561 47.6168 30.8296 48.5494ZM67.5796 50.0525C67.853 50.5103 68 50.9953 68 51.4975C68 54.1655 63.8677 56.3313 58.7749 56.3313C53.6821 56.3313 49.5498 54.1655 49.5498 51.4975C49.5498 50.9953 49.6968 50.5103 49.9702 50.0525C51.1426 52.0168 54.6426 53.4413 58.7749 53.4413C62.9072 53.4413 66.4072 52.0168 67.5796 50.0525ZM60.1147 42.9846L60.0977 41.789C60.3677 41.7787 60.5898 41.6967 60.7607 41.543C60.9351 41.3893 61.0273 41.2048 61.0479 40.9862C61.0684 40.7368 60.9863 40.5182 60.8018 40.3269C60.6138 40.1356 60.3164 40.0228 59.9097 39.9887C59.5303 39.9545 59.2363 40.016 59.0278 40.1731C58.8228 40.3269 58.7065 40.5421 58.6826 40.8154C58.6519 41.157 58.7783 41.4781 59.0586 41.7753L58.833 42.7284L55.6509 41.8368L55.9243 38.6871L57.0386 38.7828L56.8437 41.0306L57.8828 41.3073C57.7734 41.0306 57.729 40.7539 57.7529 40.4738C57.7974 39.9477 58.0298 39.5138 58.4468 39.1825C58.8638 38.8477 59.3799 38.7076 59.9917 38.7623C60.5044 38.8067 60.9487 38.9946 61.3213 39.3259C61.834 39.7769 62.0596 40.361 61.998 41.0784C61.9468 41.6523 61.7554 42.1067 61.4136 42.4414C61.0752 42.7796 60.6411 42.9607 60.1147 42.9846ZM58.7749 38.185C62.9619 38.185 66.356 39.5172 66.356 41.157C66.356 42.8001 62.9619 44.129 58.7749 44.129C54.5879 44.129 51.1938 42.7967 51.1938 41.157C51.1938 39.5138 54.5879 38.185 58.7749 38.185ZM58.7749 37.1977C63.8677 37.1977 68 39.3635 68 42.0315C68 44.6995 63.8677 46.8653 58.7749 46.8653C53.6821 46.8653 49.5498 44.6995 49.5498 42.0315C49.5498 39.3635 53.6821 37.1977 58.7749 37.1977ZM67.6138 45.2563C67.8667 45.697 68 46.1616 68 46.6432C68 49.3112 63.8677 51.477 58.7749 51.477C53.6821 51.477 49.5498 49.3146 49.5498 46.6432C49.5498 46.1616 49.6865 45.6936 49.936 45.2563C51.0742 47.2479 54.6016 48.6997 58.7749 48.6997C62.9482 48.6997 66.4756 47.2479 67.6138 45.2563ZM38.5576 32.8661L38.4517 34.0652L33.9229 33.6723C34.2954 34.1471 34.5552 34.6903 34.6987 35.3018L33.6084 35.2061C33.5332 34.885 33.3691 34.5263 33.1162 34.1369C32.8599 33.744 32.5488 33.4639 32.1763 33.2931L32.2617 32.3195L38.5576 32.8661ZM35.2251 30.9838C39.4121 30.9838 42.8062 32.3161 42.8062 33.9558C42.8062 35.5956 39.4121 36.9278 35.2251 36.9278C31.0381 36.9278 27.644 35.5956 27.644 33.9558C27.644 32.3161 31.0381 30.9838 35.2251 30.9838ZM35.2251 30C40.3179 30 44.4502 32.1624 44.4502 34.8338C44.4502 37.5018 40.3179 39.6676 35.2251 39.6676C30.1323 39.6676 26 37.5018 26 34.8338C26 32.1624 30.1323 30 35.2251 30ZM44.064 38.0552C44.3169 38.4958 44.4502 38.9604 44.4502 39.4421C44.4502 42.1101 40.3179 44.2759 35.2251 44.2759C30.1323 44.2759 26 42.1101 26 39.4421C26 38.9604 26.1367 38.4958 26.3862 38.0552C27.5244 40.0467 31.0518 41.502 35.2251 41.502C39.3984 41.502 42.9258 40.0467 44.064 38.0552ZM28.7378 57.6738C27.0459 56.7993 26 55.5832 26 54.2406C26 53.7043 26.1675 53.1851 26.4785 52.7034C26.9092 53.3764 27.6133 53.981 28.5225 54.4832C28.502 54.7633 28.4917 55.0468 28.4917 55.3338C28.4883 56.14 28.5737 56.9223 28.7378 57.6738ZM28.813 52.6726C27.0801 51.7947 26 50.5615 26 49.1985C26 48.6861 26.1538 48.1941 26.4341 47.733C27.0322 48.7168 28.2183 49.5674 29.7769 50.1652C29.3564 50.9509 29.0317 51.7913 28.813 52.6726Z" fill="#D2042D"/>
<defs>
<filter id="filter0_d_403_222" x="0" y="0" width="94" height="94" filterUnits="userSpaceOnUse" color-interpolation-filters="sRGB">
<feFlood flood-opacity="0" result="BackgroundImageFix"/>
<feColorMatrix in="SourceAlpha" type="matrix" values="0 0 0 0 0 0 0 0 0 0 0 0 0 0 0 0 0 0 127 0" result="hardAlpha"/>
<feOffset/>
<feGaussianBlur stdDeviation="6"/>
<feComposite in2="hardAlpha" operator="out"/>
<feColorMatrix type="matrix" values="0 0 0 0 0 0 0 0 0 0 0 0 0 0 0 0 0 0 0.25 0"/>
<feBlend mode="normal" in2="BackgroundImageFix" result="effect1_dropShadow_403_222"/>
<feBlend mode="normal" in="SourceGraphic" in2="effect1_dropShadow_403_222" result="shape"/>
</filter>
</defs>
</svg>
