<svg width="94" height="94" viewBox="0 0 94 94" fill="none" xmlns="http://www.w3.org/2000/svg">
<g filter="url(#filter0_d_403_211)">
<circle cx="47" cy="47" r="35" fill="white"/>
</g>
<path d="M53.9419 47.8275L53.7607 48.3925L53.7334 48.4408L53.7095 48.4718C53.4864 48.5302 53.2563 48.5568 53.0259 48.551C53.2377 47.9282 53.309 47.2655 53.2344 46.6114V46.6114C53.2272 46.5225 53.2426 46.4331 53.2791 46.3518C53.3155 46.2704 53.3719 46.1998 53.4429 46.1464C53.8276 45.8515 54.1119 45.4434 54.2563 44.9785L54.3691 44.0794C54.3605 43.9568 54.3388 43.8355 54.3042 43.7176C54.3042 43.6763 54.2769 43.6453 54.2666 43.6177H54.1777C54.045 43.6099 53.9203 43.5513 53.8289 43.4541C53.7374 43.3568 53.6862 43.2281 53.6855 43.0941C53.7026 41.3991 53.5249 40.3381 53.2173 39.6043C52.6978 38.7189 51.8945 38.2711 50.9375 37.7888C50.77 37.7164 50.5957 37.6372 50.4248 37.5476C47.3042 40.8342 44.7202 36.6071 41.0186 42.9735H40.8921C40.8442 43.0838 40.793 43.194 40.7451 43.318L40.7178 43.3731C40.6484 43.4942 40.5342 43.5825 40.4002 43.6187C40.2663 43.6549 40.1235 43.6359 40.0034 43.5661C39.9191 43.5178 39.8713 43.4972 39.8599 43.504C39.8394 43.504 39.8154 43.5592 39.7847 43.6315C39.7181 43.7996 39.68 43.9778 39.6719 44.1586C39.6343 44.9027 39.8735 45.8811 40.3555 46.3531C40.4048 46.4003 40.4444 46.4568 40.472 46.5195C40.4995 46.5822 40.5145 46.6497 40.5161 46.7182C40.5708 48.992 41.5723 49.8601 42.7891 50.9177L43.3018 51.3656C44.522 52.4611 45.8105 53.0261 47.0615 53.0261C48.3125 53.0261 49.519 52.4955 50.6538 51.3931H51.481H51.5698C51.7373 51.3931 51.9492 51.3931 52.1885 51.3931L51.9116 51.6584L51.4058 52.1407C50.0386 53.4532 48.5825 54.0871 47.0854 54.0871C45.5884 54.0871 44.0366 53.4291 42.6182 52.1579L42.1191 51.717C40.9194 50.6835 39.9009 49.7912 39.583 47.8551L37.9355 47.9895C37.6198 48.0364 37.2983 47.9572 37.0397 47.7686C36.7811 47.58 36.6058 47.2971 36.5513 46.9801L35.9121 41.8883C35.8951 41.7271 35.9102 41.564 35.9563 41.4086C36.0024 41.2532 36.0788 41.1087 36.1809 40.9833C36.283 40.858 36.4088 40.7543 36.551 40.6784C36.6933 40.6026 36.849 40.556 37.0093 40.5413L37.5459 40.4965C37.5138 40.4261 37.4952 40.3501 37.4912 40.2726C37.1699 34.9845 39.4326 31.6601 42.4917 30.065C44.0553 29.2847 45.7916 28.9227 47.534 29.0138C49.2764 29.1049 50.9663 29.646 52.4414 30.5852C55.2373 32.4008 57.0625 35.7218 56.2422 40.3415C56.2289 40.4057 56.2083 40.4682 56.1807 40.5276L56.9976 40.6206C57.1703 40.6385 57.3377 40.691 57.49 40.7751C57.6423 40.8591 57.7763 40.9731 57.8843 41.1101C57.9922 41.2472 58.0719 41.4046 58.1186 41.5732C58.1653 41.7417 58.1781 41.918 58.1563 42.0916L57.5239 46.9353C57.4698 47.2841 57.2827 47.5978 57.0024 47.8095C56.7221 48.0213 56.3708 48.1143 56.0234 48.0687C55.9304 48.4345 55.8162 48.7945 55.6816 49.147C55.5655 49.4463 55.3912 49.7192 55.1689 49.9497C54.4854 50.6593 52.2773 50.6593 51.4946 50.6593H49.4438C49.2082 50.8929 48.9271 51.0747 48.6182 51.1933C48.3094 51.3118 47.9795 51.3646 47.6494 51.3483C46.5146 51.3483 45.5986 50.742 45.5986 49.9945C45.5986 49.2469 46.5146 48.6406 47.6494 48.6406C47.9683 48.6339 48.2854 48.6911 48.5823 48.8088C48.8791 48.9265 49.1499 49.1023 49.3789 49.3261H51.481C52.0962 49.3261 53.9214 49.3261 54.2358 49.0057C54.3308 48.9067 54.4052 48.7896 54.4546 48.6612L54.687 47.9309L53.9419 47.8448V47.8275ZM38.9883 38.3606C40.1504 32.8968 46.4702 29.4897 52.4688 32.9589C53.0086 33.271 53.5002 33.661 53.9282 34.1164C53.349 33.1399 52.5506 32.314 51.5972 31.7049C50.3589 30.9108 48.9375 30.4538 47.4717 30.3785C46.0052 30.2869 44.5407 30.5876 43.2266 31.2501C40.9775 32.4076 39.2344 34.7365 38.9883 38.3606ZM41.3057 54.1491L44.457 62.4826L46.043 57.9387L45.2671 57.0843C44.6826 56.223 44.8843 55.2481 45.9507 55.0724C46.3403 55.0348 46.7322 55.0267 47.123 55.0483C47.5532 55.0202 47.9851 55.0375 48.4116 55.1C49.4165 55.3204 49.5225 56.3023 49.02 57.0843L48.2578 57.9387L49.8403 62.4861L52.6943 54.1491C54.7451 56.0163 61.9946 56.3918 64.2607 57.6631C67.3984 59.4338 67.313 62.8306 68 66H26C26.6836 62.8616 26.6118 59.4062 29.7393 57.6631C32.5249 56.0956 39.0259 56.2162 41.3057 54.1491Z" fill="#D2042D"/>
<defs>
<filter id="filter0_d_403_211" x="0" y="0" width="94" height="94" filterUnits="userSpaceOnUse" color-interpolation-filters="sRGB">
<feFlood flood-opacity="0" result="BackgroundImageFix"/>
<feColorMatrix in="SourceAlpha" type="matrix" values="0 0 0 0 0 0 0 0 0 0 0 0 0 0 0 0 0 0 127 0" result="hardAlpha"/>
<feOffset/>
<feGaussianBlur stdDeviation="6"/>
<feComposite in2="hardAlpha" operator="out"/>
<feColorMatrix type="matrix" values="0 0 0 0 0 0 0 0 0 0 0 0 0 0 0 0 0 0 0.25 0"/>
<feBlend mode="normal" in2="BackgroundImageFix" result="effect1_dropShadow_403_211"/>
<feBlend mode="normal" in="SourceGraphic" in2="effect1_dropShadow_403_211" result="shape"/>
</filter>
</defs>
</svg>
