<svg width="924" height="274" viewBox="0 0 924 274" fill="none" xmlns="http://www.w3.org/2000/svg">
<g clip-path="url(#clip0_932_650)">
<path d="M889.351 273.973H34.65C15.8468 273.973 0.461914 258.564 0.461914 239.73V34.2702C0.461914 15.4362 15.8465 0.0267334 34.65 0.0267334H889.35C908.154 0.0267334 923.538 15.4362 923.538 34.2702V239.73C923.538 258.564 908.154 273.973 889.35 273.973" fill="black"/>
<path d="M889.351 0.0267334H34.65C15.8468 0.0267334 0.461914 15.4362 0.461914 34.2702V239.73C0.461914 258.564 15.8465 273.973 34.65 273.973H889.35C908.154 273.973 923.538 258.564 923.538 239.73V34.2702C923.539 15.4362 908.154 0.0267334 889.35 0.0267334M889.35 5.50549C905.186 5.50549 918.068 18.4114 918.068 34.2702V239.73C918.068 255.592 905.186 268.497 889.35 268.497H34.65C18.817 268.497 5.93205 255.591 5.93205 239.73V34.2702C5.93205 18.4114 18.8167 5.5058 34.65 5.5058H889.35" fill="#A6A6A6"/>
<path d="M324.691 70.1804C324.691 75.9183 322.994 80.4876 319.597 83.8961C315.738 87.9491 310.708 89.9772 304.525 89.9772C298.603 89.9772 293.569 87.9227 289.428 83.8077C285.281 79.6959 283.211 74.597 283.211 68.5134C283.211 62.427 285.281 57.3312 289.428 53.216C293.569 49.1044 298.603 47.0468 304.525 47.0468C307.463 47.0468 310.276 47.6224 312.946 48.7702C315.617 49.9207 317.759 51.448 319.362 53.3606L315.756 56.9748C313.04 53.7244 309.301 52.1005 304.525 52.1005C300.206 52.1005 296.472 53.6204 293.32 56.662C290.168 59.7067 288.593 63.6551 288.593 68.5134C288.593 73.3719 290.168 77.32 293.32 80.365C296.472 83.4067 300.206 84.9263 304.525 84.9263C309.106 84.9263 312.925 83.3984 315.983 80.3383C317.968 78.3447 319.116 75.5736 319.423 72.0152H304.524V67.0794H324.405C324.597 68.1527 324.69 69.1825 324.69 70.1804" fill="white"/>
<path d="M324.691 70.1804H324.007C324.001 75.7875 322.366 80.1425 319.113 83.4119L319.106 83.4174L319.103 83.423C315.366 87.3363 310.563 89.284 304.524 89.2923C298.761 89.284 293.937 87.315 289.909 83.3236C285.889 79.3241 283.902 74.4415 283.894 68.5134C283.902 62.5825 285.889 57.7027 289.909 53.7059C293.937 49.7117 298.761 47.7399 304.524 47.7316C307.374 47.7316 310.088 48.2887 312.676 49.3987C315.267 50.5172 317.313 51.9829 318.838 53.8026L319.362 53.3606L318.878 52.8764L315.272 56.493L315.755 56.9747L316.282 56.5364C313.44 53.1251 309.45 51.4055 304.524 51.4156C300.046 51.4101 296.106 53.0131 292.847 56.1702C289.556 59.3374 287.903 63.508 287.909 68.5134C287.903 73.519 289.556 77.6894 292.847 80.8569C296.106 84.0139 300.046 85.6166 304.524 85.6111C309.257 85.6194 313.291 84.0112 316.466 80.8224C318.587 78.6925 319.789 75.7422 320.104 72.0739L320.168 71.3303H305.208V67.7642H324.404V67.0794L323.731 67.1997C323.918 68.2382 324.006 69.225 324.006 70.1804H325.374C325.374 69.1394 325.278 68.0695 325.077 66.9568L324.976 66.3945H303.841V72.7H319.423V72.0152L318.742 71.9564C318.44 75.4024 317.345 77.9975 315.499 79.8544C312.561 82.7861 308.956 84.2331 304.524 84.2414C300.366 84.2359 296.838 82.8018 293.795 79.8726C290.783 76.9537 289.284 73.2273 289.276 68.5134C289.284 63.7995 290.783 60.073 293.795 57.1542C296.838 54.2249 300.366 52.7909 304.524 52.7853C309.148 52.7964 312.639 54.3265 315.233 57.4164L315.714 57.9889L319.845 53.8451L320.289 53.4012L319.885 52.9217C318.205 50.9158 315.967 49.3236 313.216 48.1416C310.459 46.956 307.551 46.3619 304.524 46.3619C298.446 46.3567 293.2 48.4968 288.945 52.7321C284.674 56.959 282.522 62.2722 282.527 68.5134C282.522 74.7518 284.674 80.068 288.948 84.2974C293.2 88.5299 298.446 90.6676 304.524 90.662C310.855 90.6676 316.106 88.5616 320.091 84.3694L319.596 83.8961L320.08 84.3805C323.622 80.8357 325.379 76.047 325.374 70.1804H324.69M356.207 53.0156H337.524V66.0445H354.373V70.9822H337.524V84.0112H356.207V89.0593H332.257V47.9674H356.207V53.0156" fill="white"/>
<path d="M356.207 53.0156V52.3307H336.84V66.7294H353.689V70.2955L336.84 70.2974V84.6961H355.523V88.3745H332.941V48.6523H355.523V53.0156H356.207V52.3307V53.0156H356.891V47.2826H331.573V89.7442H356.891V83.3264H338.207V71.6671H355.056V65.3597H338.207V53.7004H356.891V53.0156H356.207M378.437 89.0597H373.162V53.0153H361.704V47.9671H389.896V53.0153H378.437V89.059" fill="white"/>
<path d="M378.437 89.0597V88.3745H373.845V52.3307H362.387V48.6526H389.211V52.3307H377.753V89.0594H378.437V88.3745V89.0594H379.121V53.7004H390.579V47.2826H361.02V53.7001H372.478V89.7439H379.121V89.059H378.437M410.293 89.0597V47.9671H415.563V89.059H410.293" fill="white"/>
<path d="M410.294 89.0597H410.978V48.6523H414.88V88.3745H410.294V89.0594H410.978H410.294V89.7442H416.247V47.2826H409.61V89.7442H410.294V89.0594M438.948 89.0597H433.673V53.0153H422.215V47.9671H450.406V53.0153H438.948V89.059" fill="white"/>
<path d="M438.947 89.0597V88.3745H434.355V52.3307H422.898V48.6526H449.722V52.3307H438.263V89.0593H438.947V88.3745V89.0593H439.631V53.7004H451.089V47.2826H421.53V53.7001H432.988V89.7439H439.631V89.059H438.947M477.585 80.309C480.621 83.3879 484.337 84.926 488.731 84.926C493.125 84.926 496.842 83.3879 499.874 80.309C502.914 77.2298 504.436 73.2938 504.436 68.5134C504.436 63.7333 502.914 59.7972 499.874 56.7181C496.842 53.6389 493.125 52.1005 488.731 52.1005C484.337 52.1005 480.621 53.6389 477.585 56.7181C474.553 59.7972 473.031 63.733 473.031 68.5134C473.031 73.2938 474.553 77.2298 477.585 80.309ZM503.773 83.749C499.74 87.9033 494.724 89.9772 488.731 89.9772C482.732 89.9772 477.718 87.9033 473.694 83.749C469.657 79.5993 467.649 74.5197 467.649 68.5134C467.649 62.5071 469.657 57.4266 473.694 53.2778C477.718 49.1226 482.732 47.0468 488.731 47.0468C494.693 47.0468 499.695 49.1337 503.747 53.3046C507.793 57.4752 509.818 62.5446 509.818 68.5134C509.818 74.5197 507.798 79.5993 503.773 83.749Z" fill="white"/>
<path d="M477.585 80.309L477.099 80.7904C480.248 83.9927 484.177 85.6194 488.731 85.6111C493.282 85.6194 497.217 83.9927 500.361 80.7904C503.531 77.585 505.125 73.4384 505.12 68.5134C505.125 63.5887 503.531 59.4417 500.361 56.2363C497.217 53.034 493.282 51.4076 488.731 51.4156C484.177 51.4076 480.248 53.034 477.099 56.2363C473.937 59.4417 472.339 63.5887 472.348 68.5134C472.339 73.4381 473.937 77.585 477.099 80.7904L477.585 80.309L478.072 79.8273C475.171 76.8709 473.721 73.1522 473.715 68.5134C473.721 63.8749 475.171 60.1561 478.071 57.1994C480.999 54.2437 484.495 52.7936 488.731 52.7856C492.964 52.7936 496.469 54.2437 499.388 57.1994C502.294 60.1561 503.745 63.8749 503.75 68.5134C503.745 73.1519 502.294 76.8709 499.388 79.8273C496.469 82.7834 492.965 84.2331 488.731 84.2411C484.495 84.2331 480.999 82.7834 478.071 79.8273L477.585 80.309ZM503.774 83.7489L503.285 83.2731C499.364 87.2966 494.57 89.2843 488.731 89.2923C482.89 89.284 478.095 87.2966 474.182 83.2731L474.164 83.2515L474.182 83.2731C470.27 79.2357 468.339 74.367 468.333 68.5134C468.339 62.6597 470.27 57.791 474.182 53.754C478.095 49.7302 482.89 47.74 488.731 47.732C494.532 47.74 499.316 49.7385 503.258 53.7832C507.185 57.839 509.126 62.7 509.135 68.5134C509.126 74.367 507.19 79.2357 503.285 83.2731L503.774 83.7489L504.266 84.2248C508.41 79.9609 510.507 74.6717 510.502 68.5134C510.507 62.3901 508.402 57.1117 504.238 52.8287C500.072 48.5288 494.853 46.3546 488.731 46.362C482.578 46.3546 477.343 48.5187 473.202 52.802V52.7989C469.049 57.0658 466.96 62.355 466.966 68.5134C466.96 74.6717 469.049 79.9609 473.202 84.2276L473.221 84.247L473.202 84.2248C477.343 88.5081 482.578 90.6676 488.731 90.662C494.882 90.6676 500.117 88.5081 504.266 84.2248L503.774 83.7489V83.7489ZM517.217 89.0596V47.9671H523.632L543.571 79.9338H543.798L543.571 72.0149V47.9671H548.846V89.059H543.344L522.484 55.5432H522.257L522.484 63.4649V89.059H517.217" fill="white"/>
<path d="M517.217 89.0597H517.901V48.6523H523.253L543.192 80.619H544.501L544.255 72.005V48.6526H548.163V88.3745H543.724L522.864 54.8587H521.555L521.8 63.4763V88.3745H517.217V89.0594H517.901H517.217V89.7442H523.168V63.4545L522.941 55.525L522.257 55.5435V56.2284H522.484V55.5435L521.904 55.9076L542.965 89.7442H549.53V47.2826H542.888V72.0232L543.115 79.9526L543.798 79.9341V79.2493H543.571V79.9341L544.151 79.5706L524.012 47.2826H516.534V89.7442H517.218V89.0594M731.649 205.487H744.407V119.87H731.648L731.649 205.487ZM846.568 150.711L831.943 187.83H831.505L816.325 150.711H802.582L825.344 202.592L812.367 231.45H825.679L860.756 150.711L846.568 150.711ZM774.213 195.762C770.028 195.762 764.202 193.67 764.202 188.491C764.202 181.883 771.464 179.35 777.727 179.35C783.341 179.35 785.973 180.561 789.385 182.215C788.394 190.144 781.577 195.762 774.213 195.762V195.762ZM775.751 148.838C766.513 148.838 756.948 152.915 752.989 161.947L764.312 166.682C766.732 161.947 771.238 160.403 775.97 160.403C782.568 160.403 789.276 164.371 789.385 171.42V172.3C787.074 170.978 782.131 168.996 776.079 168.996C763.874 168.996 751.443 175.714 751.443 188.271C751.443 199.727 761.454 207.108 772.667 207.108C781.249 207.108 785.973 203.253 788.948 198.737H789.385V205.345H801.7V172.519C801.7 157.322 790.377 148.838 775.751 148.838V148.838ZM696.9 161.133H678.753V131.786H696.9C706.438 131.786 711.854 139.697 711.854 146.46C711.854 153.094 706.438 161.133 696.9 161.133ZM696.572 119.87H666.001V205.487H678.753V173.049H696.572C710.712 173.049 724.613 162.795 724.613 146.46C724.613 130.125 710.712 119.87 696.572 119.87V119.87ZM529.864 195.778C521.05 195.778 513.67 188.386 513.67 178.234C513.67 167.975 521.05 160.47 529.864 160.47C538.566 160.47 545.396 167.974 545.396 178.234C545.396 188.386 538.566 195.778 529.864 195.778H529.864ZM544.514 155.505H544.073C541.21 152.086 535.7 148.996 528.761 148.996C514.22 148.996 500.892 161.794 500.892 178.234C500.892 194.564 514.22 207.252 528.761 207.252C535.7 207.252 541.21 204.162 544.073 200.634H544.514V204.826C544.514 215.971 538.566 221.929 528.983 221.929C521.162 221.929 516.314 216.3 514.33 211.557L503.206 216.191C506.4 223.914 514.883 233.403 528.983 233.403C543.964 233.403 556.632 224.575 556.632 203.06V150.762H544.514V155.505ZM565.444 205.487H578.222V119.867H565.444V205.487ZM597.059 177.242C596.728 165.986 605.761 160.251 612.26 160.251C617.33 160.251 621.625 162.787 623.054 166.431L597.059 177.242ZM636.715 167.533C634.295 161.021 626.91 148.996 611.819 148.996C596.838 148.996 584.391 160.802 584.391 178.124C584.391 194.454 596.728 207.252 613.251 207.252C626.582 207.252 634.295 199.087 637.488 194.344L627.573 187.723C624.271 192.578 619.751 195.778 613.251 195.778C606.752 195.778 602.127 192.798 599.151 186.952L638.035 170.842L636.715 167.533ZM326.916 157.934V170.291H356.437C355.556 177.242 353.242 182.316 349.717 185.847C345.422 190.152 338.702 194.895 326.915 194.895C308.739 194.895 294.53 180.221 294.53 162.016C294.53 143.811 308.739 129.135 326.916 129.135C336.72 129.135 343.878 132.998 349.167 137.963L357.869 129.247C350.489 122.184 340.684 116.778 326.916 116.778C302.019 116.778 281.09 137.08 281.09 162.016C281.09 186.952 302.019 207.252 326.916 207.252C340.356 207.252 350.489 202.841 358.419 194.564C366.571 186.399 369.106 174.925 369.106 165.658C369.106 162.787 368.886 160.141 368.443 157.934H326.916ZM402.669 195.778C393.854 195.778 386.253 188.496 386.253 178.124C386.253 167.642 393.854 160.47 402.669 160.47C411.48 160.47 419.081 167.642 419.081 178.124C419.081 188.496 411.48 195.778 402.669 195.778ZM402.669 148.996C386.584 148.996 373.475 161.243 373.475 178.124C373.475 194.895 386.584 207.252 402.669 207.252C418.75 207.252 431.859 194.895 431.859 178.124C431.859 161.243 418.75 148.996 402.669 148.996ZM466.349 195.778C457.538 195.778 449.936 188.496 449.936 178.124C449.936 167.642 457.538 160.47 466.349 160.47C475.16 160.47 482.762 167.642 482.762 178.124C482.762 188.496 475.16 195.778 466.349 195.778H466.349ZM466.349 148.996C450.265 148.996 437.158 161.243 437.158 178.124C437.158 194.895 450.265 207.252 466.349 207.252C482.431 207.252 495.54 194.895 495.54 178.124C495.54 161.243 482.431 148.996 466.349 148.996H466.349Z" fill="white"/>
<path d="M72.3157 52.1541C70.0211 54.2277 68.6514 57.6864 68.6514 62.2774V61.2396V212.74V211.742C68.6514 215.982 69.8262 219.256 71.8158 221.365L72.3237 221.852V221.854C73.9341 223.309 75.9991 224.082 78.3657 224.08C80.6782 224.08 83.28 223.341 86.0258 221.782L185.275 165.299L219.366 145.895C223.696 143.432 226.127 140.253 226.533 137.016V137.003C226.127 133.758 223.696 130.582 219.367 128.118L185.272 108.717L86.0261 52.2341C83.2744 50.672 80.6708 49.9308 78.3522 49.9308C75.9883 49.9308 73.9261 50.7013 72.3163 52.1541H72.3157Z" fill="#00C1FF"/>
<path d="M72.324 221.852L71.8158 221.365C69.8262 219.256 68.6514 215.982 68.6514 211.742V212.74V61.2771V62.2774C68.6514 57.6864 70.0211 54.2277 72.3157 52.1541L157.032 137.006L72.324 221.852Z" fill="url(#paint0_linear_932_650)"/>
<path d="M185.275 165.299L157.032 137.006L185.272 108.717L219.367 128.118C223.696 130.582 226.127 133.758 226.533 137.003V137.016C226.127 140.253 223.696 143.432 219.367 145.895L185.275 165.298" fill="url(#paint1_linear_932_650)"/>
<path d="M78.3656 224.08C75.9993 224.082 73.9343 223.309 72.3242 221.853V221.851L157.033 137.005L185.275 165.298L86.0257 221.782C83.2799 223.341 80.6781 224.08 78.3656 224.08Z" fill="url(#paint2_linear_932_650)"/>
<path d="M157.032 137.006L72.3154 52.1544C73.9258 50.7016 75.988 49.9312 78.3516 49.9312C80.6702 49.9312 83.2742 50.672 86.0256 52.2344L185.272 108.717L157.032 137.006" fill="url(#paint3_linear_932_650)"/>
<path d="M78.3684 225.083C76.0021 225.083 73.9343 224.31 72.324 222.854L72.3212 222.857C72.3146 222.85 72.3075 222.844 72.3 222.838L71.8595 222.407C71.8456 222.394 71.8327 222.378 71.8164 222.362L72.3243 221.854C73.9347 223.309 75.9993 224.082 78.3663 224.079C80.6785 224.079 83.2802 223.341 86.0261 221.782L185.275 165.299L185.911 165.936L185.267 166.302L86.0258 222.782C83.5234 224.203 81.1432 224.944 78.9933 225.067C78.7852 225.077 78.5768 225.082 78.3684 225.082" fill="url(#paint4_linear_932_650)"/>
<path d="M71.8158 222.362C69.8262 220.254 68.6514 216.982 68.6514 212.74V211.742C68.6514 215.982 69.8262 219.256 71.8158 221.365L72.3237 221.851L71.8158 222.362" fill="url(#paint5_linear_932_650)"/>
<path d="M185.91 165.936L185.274 165.298L219.366 145.895C223.696 143.432 226.126 140.253 226.533 137.016C226.533 138.204 226.268 139.392 225.742 140.548C224.681 142.878 222.556 145.079 219.366 146.896L185.91 165.936" fill="url(#paint6_linear_932_650)"/>
<path d="M226.533 137.003C226.127 133.758 223.696 130.582 219.367 128.118L185.272 108.717L185.908 108.08H185.911L219.367 127.12C224.14 129.838 226.531 133.42 226.533 137.003" fill="url(#paint7_linear_932_650)"/>
<path d="M68.6514 62.2774V61.2309C68.6514 60.8535 68.6615 60.4845 68.6809 60.1262V60.1099C68.6809 60.105 68.6809 60.0998 68.6828 60.0942V60.0539C68.8887 56.4019 70.0211 53.5533 71.8158 51.6511L72.3157 52.1537C70.0211 54.2276 68.6514 57.6863 68.6514 62.2774Z" fill="url(#paint8_linear_932_650)"/>
<path d="M185.273 108.717L86.0261 52.2338C83.2747 50.6717 80.6711 49.9308 78.3524 49.9308C75.9886 49.9308 73.9263 50.7012 72.3163 52.154L71.8164 51.6511C71.9725 51.4856 72.1347 51.3259 72.3027 51.1725C72.308 51.1669 72.3163 51.1614 72.3215 51.1562C73.919 49.7144 75.9593 48.944 78.302 48.9302H78.3524C80.6711 48.9302 83.2747 49.6714 86.0261 51.234L185.911 108.078L185.908 108.08L185.273 108.717" fill="url(#paint9_linear_932_650)"/>
</g>
<defs>
<linearGradient id="paint0_linear_932_650" x1="122.79" y1="59.6763" x2="49.7837" y2="132.801" gradientUnits="userSpaceOnUse">
<stop stop-color="#00A0FF"/>
<stop offset="0.00657" stop-color="#00A1FF"/>
<stop offset="0.2601" stop-color="#00BEFF"/>
<stop offset="0.5122" stop-color="#00D2FF"/>
<stop offset="0.7604" stop-color="#00DFFF"/>
<stop offset="1" stop-color="#00E3FF"/>
</linearGradient>
<linearGradient id="paint1_linear_932_650" x1="231.808" y1="136.517" x2="66.3586" y2="136.517" gradientUnits="userSpaceOnUse">
<stop stop-color="#FFE000"/>
<stop offset="0.4087" stop-color="#FFBD00"/>
<stop offset="0.7754" stop-color="#FFA500"/>
<stop offset="1" stop-color="#FF9C00"/>
</linearGradient>
<linearGradient id="paint2_linear_932_650" x1="170.281" y1="163.905" x2="46.5654" y2="286.915" gradientUnits="userSpaceOnUse">
<stop stop-color="#FF3A44"/>
<stop offset="1" stop-color="#C31162"/>
</linearGradient>
<linearGradient id="paint3_linear_932_650" x1="50.4815" y1="39.5747" x2="105.619" y2="94.4817" gradientUnits="userSpaceOnUse">
<stop stop-color="#32A071"/>
<stop offset="0.0685" stop-color="#2DA771"/>
<stop offset="0.4762" stop-color="#15CF74"/>
<stop offset="0.8009" stop-color="#06E775"/>
<stop offset="1" stop-color="#00F076"/>
</linearGradient>
<linearGradient id="paint4_linear_932_650" x1="170.219" y1="183.531" x2="71.1419" y2="282.769" gradientUnits="userSpaceOnUse">
<stop stop-color="#CC2E36"/>
<stop offset="1" stop-color="#9C0E4E"/>
</linearGradient>
<linearGradient id="paint5_linear_932_650" x1="79.9369" y1="59.6761" x2="15.6189" y2="124.099" gradientUnits="userSpaceOnUse">
<stop stop-color="#008DE0"/>
<stop offset="0.00657" stop-color="#008DE0"/>
<stop offset="0.2601" stop-color="#00A7E0"/>
<stop offset="0.5122" stop-color="#00B8E0"/>
<stop offset="0.7604" stop-color="#00C4E0"/>
<stop offset="1" stop-color="#00C7E0"/>
</linearGradient>
<linearGradient id="paint6_linear_932_650" x1="231.808" y1="137.009" x2="66.358" y2="137.009" gradientUnits="userSpaceOnUse">
<stop stop-color="#E0C500"/>
<stop offset="0.4087" stop-color="#E0A600"/>
<stop offset="0.7754" stop-color="#E09100"/>
<stop offset="1" stop-color="#E08900"/>
</linearGradient>
<linearGradient id="paint7_linear_932_650" x1="231.809" y1="137.01" x2="66.3593" y2="137.01" gradientUnits="userSpaceOnUse">
<stop stop-color="#FFE840"/>
<stop offset="0.4087" stop-color="#FFCE40"/>
<stop offset="0.7754" stop-color="#FFBC40"/>
<stop offset="1" stop-color="#FFB540"/>
</linearGradient>
<linearGradient id="paint8_linear_932_650" x1="79.8671" y1="59.7926" x2="17.9176" y2="119.154" gradientUnits="userSpaceOnUse">
<stop stop-color="#40B8FF"/>
<stop offset="0.00657" stop-color="#40B9FF"/>
<stop offset="0.2601" stop-color="#40CEFF"/>
<stop offset="0.5122" stop-color="#40DDFF"/>
<stop offset="0.7604" stop-color="#40E7FF"/>
<stop offset="1" stop-color="#40EAFF"/>
</linearGradient>
<linearGradient id="paint9_linear_932_650" x1="50.3586" y1="57.5189" x2="94.6011" y2="101.833" gradientUnits="userSpaceOnUse">
<stop stop-color="#65B895"/>
<stop offset="0.0685" stop-color="#62BD95"/>
<stop offset="0.4762" stop-color="#50DB97"/>
<stop offset="0.8009" stop-color="#44ED98"/>
<stop offset="1" stop-color="#40F498"/>
</linearGradient>
<clipPath id="clip0_932_650">
<rect width="924" height="274" fill="white"/>
</clipPath>
</defs>
</svg>
