<svg width="94" height="94" viewBox="0 0 94 94" fill="none" xmlns="http://www.w3.org/2000/svg">
<g filter="url(#filter0_d_403_217)">
<circle cx="47" cy="47" r="35" fill="white"/>
</g>
<path fill-rule="evenodd" clip-rule="evenodd" d="M46.9281 24C54.7593 28.9687 61.8344 31.3187 67.9054 30.7639C68.9662 52.231 61.0458 64.909 47.0092 70.1997C33.4539 65.2473 25.4361 53.115 26.0309 30.4373C33.1583 30.8108 40.1513 29.2691 46.9281 24ZM43.1751 46.721C43.6508 47.1247 44.0994 47.5592 44.5181 48.0218C45.8303 45.9073 47.23 43.966 48.7072 42.1808C52.8856 37.13 50.992 38.1033 56.7872 38.1033L55.9824 38.9991C53.5074 41.7505 52.6729 43.1839 50.6441 46.1166C48.6153 49.0529 46.8019 52.083 45.1877 55.2016L44.6866 56.1713L44.2251 55.1844C43.3743 53.355 42.3541 51.6771 41.1391 50.1769C39.9233 48.6767 38.8616 47.6989 37.2132 46.5667C37.9684 44.0851 41.5636 45.3552 43.1751 46.721ZM46.9416 27.5759C53.4362 31.6957 59.6704 34.0123 64.705 33.5514C65.5846 51.3541 58.6493 62.2352 47.0101 66.623C35.7675 62.5166 28.7519 52.0884 29.2449 33.2816C35.7684 33.6235 41.7466 31.6155 46.9416 27.5759Z" fill="#D2042D"/>
<defs>
<filter id="filter0_d_403_217" x="0" y="0" width="94" height="94" filterUnits="userSpaceOnUse" color-interpolation-filters="sRGB">
<feFlood flood-opacity="0" result="BackgroundImageFix"/>
<feColorMatrix in="SourceAlpha" type="matrix" values="0 0 0 0 0 0 0 0 0 0 0 0 0 0 0 0 0 0 127 0" result="hardAlpha"/>
<feOffset/>
<feGaussianBlur stdDeviation="6"/>
<feComposite in2="hardAlpha" operator="out"/>
<feColorMatrix type="matrix" values="0 0 0 0 0 0 0 0 0 0 0 0 0 0 0 0 0 0 0.25 0"/>
<feBlend mode="normal" in2="BackgroundImageFix" result="effect1_dropShadow_403_217"/>
<feBlend mode="normal" in="SourceGraphic" in2="effect1_dropShadow_403_217" result="shape"/>
</filter>
</defs>
</svg>
